<?xml version="1.0" encoding="UTF-8"?>
<svg id="_レイヤー_2" data-name="レイヤー 2" xmlns="http://www.w3.org/2000/svg" viewBox="0 0 659.55 659.55">
  <g id="_レイヤー_1-2" data-name="レイヤー 1">
    <g>
      <g>
        <path d="M321.92,331.37c-37.45,35.69-103.93,64.11-155.06,71.44-57.72,8.27-164.44-2.5-158.4-82.4,3.16-41.73,58.38-64.17,94.55-66.45,71.11-4.49,112.93,17.51,175.52,42.46,2.26.9,15.03,6.39,15.96,5.53.16-.15.25-2.84,1.15-4.35,16.47-27.76,32.89-49.71,45.35-80.66,16.22-40.3,32.69-116.44,8.32-155.29-16.83-26.83-34.61-8.75-42.83,12.78-18.77,49.21-7.15,107.96,15.06,154-4.53,13.44-13.14,25.34-17.99,38.8-1.67,2.08-4.38,1.92-6.43.61-2.79-1.79-15.27-25.83-17.48-30.53-25.13-53.49-36.22-121.04-14.89-177.61,30.32-80.41,117.18-67.5,135.26,14.24,17.28,78.12-19.96,202.02-78.09,257.43ZM251.5,330.94c1.04-1.38-27.63-14.52-30.01-15.47-41.52-16.51-125.05-34.52-161.5-1.54-26.92,24.36,14.81,41.36,34.51,45.53,53.85,11.39,109.22-4.26,157.01-28.52Z" fill="none"/>
        <path d="M365.5,317.96c-13.62-2.22-7.86-9.22-.32-14.83,60.08-44.68,182.17-69.46,248.99-30.36,64.59,37.8,37.73,105.45-25.14,125.21-65.77,20.67-136.09-5.54-196.21-30.86-5.36-2.26-19.82-10.34-24.26-10.75-2.79-.26-8.91,11.26-10.91,13.89,22.83,44.21,48.43,93.31,50.89,144.14,1.75,36.11-2.42,85.93-26.54,114.56-27.92,33.14-74.15,34.07-100.34-1.68-39.73-54.23-23.41-148.97.36-207.3,12.42-30.48,30.14-66.21,57.15-85.85,8.36-6.08,18.19-10.05,26.32-16.17ZM407.51,327.93c.55.66,12.97,7.49,14.97,8.54,40.08,21.04,99.53,32.38,144.06,23.01,29.72-6.25,59.5-31.03,19.84-51.91-44.68-23.53-135.88-8.83-177.59,18.14-.75.48-2.66.58-1.28,2.22ZM330.51,409.95c-4.49,11.2-10.01,22.07-14.03,33.48-14.09,40.02-25.91,115.67-3.4,153.44,17.72,29.74,36.38,6.24,44.18-15.66,14.7-41.25,10.04-80.9-2.74-121.78-5.5-17.59-12.9-34.69-24.01-49.48Z" fill="none"/>
      </g>
      <rect width="659.55" height="659.55" fill="none"/>
    </g>
  </g>
</svg>